
<svg xmlns="http://www.w3.org/2000/svg" version="1.1" xmlns:xlink="http://www.w3.org/1999/xlink" xmlns:svgjs="http://svgjs.com/svgjs" width="1500" height="700" preserveAspectRatio="none" viewBox="0 0 1500 700"><g mask="url(&quot;#SvgjsMask1114&quot;)" fill="none"><path d="M33.209,151.39C54.68,150.718,76.933,143.714,87.145,124.815C96.987,106.6,88.237,85.796,78.536,67.505C67.916,47.481,55.861,23.924,33.209,23.117C9.777,22.282,-6.455,43.7,-18.083,64.061C-29.587,84.204,-38.658,108.384,-26.91,128.385C-15.263,148.215,10.223,152.109,33.209,151.39" fill="#1f7a8cff" class="triangle-float3"></path><path d="M1368.676,674.492C1402.986,673.622,1438.773,664.087,1455.971,634.386C1473.199,604.633,1465.652,567.672,1447.402,538.534C1430.343,511.297,1400.812,495.403,1368.676,495.01C1335.793,494.608,1304.696,509.146,1286.546,536.568C1266.178,567.341,1254.482,607.308,1273.363,639.015C1291.953,670.234,1332.353,675.413,1368.676,674.492" fill="#1f7a8cff" class="triangle-float3"></path><path d="M1059.222,272.42C1090.156,274.505,1125.105,268.002,1140.052,240.839C1154.687,214.243,1139.779,182.577,1122.329,157.737C1107.802,137.058,1084.465,126.984,1059.222,125.777C1031.135,124.434,999.313,127.122,984.721,151.158C969.775,175.778,980.218,206.54,995.295,231.08C1009.533,254.254,1032.086,270.591,1059.222,272.42" fill="#1f7a8cff" class="triangle-float2"></path><path d="M199.067,589.411C237.035,589.318,270.52,568.122,291.049,536.183C313.659,501.006,327.684,457.089,307.744,420.332C287.093,382.264,242.374,366.257,199.067,366.627C156.471,366.99,113.96,384.767,93.556,422.16C73.845,458.283,84.346,501.831,106.302,536.635C126.646,568.884,160.937,589.504,199.067,589.411" fill="#1f7a8cff" class="triangle-float3"></path></g><defs><mask id="SvgjsMask1114"><rect width="1500" height="700" fill="#ffffff"></rect></mask><style>
            @keyframes float1 {
                0%{transform: translate(0, 0)}
                50%{transform: translate(-10px, 0)}
                100%{transform: translate(0, 0)}
            }

            .triangle-float1 {
                animation: float1 5s infinite;
            }

            @keyframes float2 {
                0%{transform: translate(0, 0)}
                50%{transform: translate(-5px, -5px)}
                100%{transform: translate(0, 0)}
            }

            .triangle-float2 {
                animation: float2 4s infinite;
            }

            @keyframes float3 {
                0%{transform: translate(0, 0)}
                50%{transform: translate(0, -10px)}
                100%{transform: translate(0, 0)}
            }

            .triangle-float3 {
                animation: float3 6s infinite;
            }
        </style></defs></svg>