<svg xmlns="http://www.w3.org/2000/svg" version="1.1" xmlns:xlink="http://www.w3.org/1999/xlink" xmlns:svgjs="http://svgjs.com/svgjs" width="1440" height="560" preserveAspectRatio="none" viewBox="0 0 1440 560">
    <g mask="url(&quot;#SvgjsMask1031&quot;)" fill="none">
        <rect width="1440" height="560" x="0" y="0" 
        fill="#e1e5f2ff"></rect>
        <path d="M0,607.201C112.631,599.554,208.921,533.826,302.277,470.353C393.467,408.352,484.759,342.526,534.228,243.974C584.69,143.443,597.28,27.761,580.249,-83.427C563.316,-193.977,516.925,-300.212,438.641,-380.085C362.838,-457.427,257.782,-493.925,152.611,-519.747C51.168,-544.654,-54.644,-556.809,-154.353,-525.679C-253.129,-494.84,-331.444,-424.1,-400.522,-347.055C-470.566,-268.932,-540.132,-183.66,-554.226,-79.686C-568.274,23.952,-514.113,120.066,-477.1,217.884C-437.36,322.908,-416.86,442.277,-329.859,513.271C-239.452,587.044,-116.419,615.105,0,607.201" 
        fill="#bfdbf7ff"></path>
        <path d="M1440 1074.2C1536.484 1089.471 1627.599 1032.2930000000001 1712.681 984.3 1802.132 933.8430000000001 1898.065 882.0350000000001 1943.742 790.0509999999999 1989.9479999999999 697.002 1983.441 586.492 1960.5430000000001 485.157 1938.792 388.895 1892.287 297.371 1817.79 232.64299999999997 1748.241 172.214 1655.042 148.68900000000002 1563.317 140.02100000000002 1482.849 132.41699999999997 1407.305 161.85199999999998 1330.354 186.57999999999998 1255.404 210.66500000000002 1177.005 228.45999999999998 1119.8 282.545 1059.304 339.741 1008.171 414.001 1001.9970000000001 497.025 995.948 578.367 1049.135 648.977 1087.186 721.125 1123.095 789.211 1163.26 851.504 1217.669 905.954 1284.72 973.0550000000001 1346.306 1059.371 1440 1074.2" 
        fill="#A4CCF4"></path>
    </g>
    <defs>
        <mask id="SvgjsMask1031">
            <rect width="1440" height="560" fill="#ffffff"></rect>
        </mask>
    </defs>
</svg>