
<svg xmlns="http://www.w3.org/2000/svg" version="1.1" xmlns:xlink="http://www.w3.org/1999/xlink" xmlns:svgjs="http://svgjs.com/svgjs" width="1600" height="700" preserveAspectRatio="none" viewBox="0 0 1600 700"><g mask="url(&quot;#SvgjsMask1041&quot;)" fill="none"><path d="M17.039,702.787C45.934,701.067,73.421,688.748,88.044,663.767C102.816,638.533,100.516,608.25,87.79,581.924C72.846,551.01,51.374,517.157,17.039,516.88C-17.552,516.601,-38.844,550.569,-55.716,580.767C-72.021,609.95,-87.414,644.482,-70.294,673.194C-53.422,701.49,-15.847,704.745,17.039,702.787" fill="#1f7a8cff" class="triangle-float3"></path><path d="M1163.431,225.849C1214.135,228.827,1270.453,216.715,1295.137,172.325C1319.388,128.714,1293.575,78.753,1269.548,35.018C1244.176,-11.165,1216.088,-65.469,1163.431,-67.413C1108.822,-69.429,1066.292,-22.7,1042.814,26.646C1022.507,69.327,1031.57,117.848,1056.051,158.28C1079.528,197.052,1118.183,223.191,1163.431,225.849" fill="#1f7a8cff" class="triangle-float1"></path><path d="M1513.013,913.346C1570.521,914.385,1617.405,872.781,1646.297,823.047C1675.347,773.042,1686.819,712.504,1659.207,661.69C1630.453,608.774,1573.1,573.703,1513.013,577.766C1458.165,581.475,1422.847,630.622,1397.473,679.389C1374.498,723.545,1365.776,773.747,1387.817,818.377C1412.676,868.714,1456.881,912.332,1513.013,913.346" fill="#1f7a8cff" class="triangle-float1"></path><path d="M110.754,472.158C160.06,472.894,210.897,455.882,235.539,413.17C260.17,370.476,249.792,317.751,224.107,275.682C199.603,235.548,157.746,207.087,110.754,208.787C66.212,210.399,33.427,245.018,10.771,283.401C-12.382,322.626,-29.064,369.291,-7.744,409.541C14.669,451.855,62.876,471.444,110.754,472.158" fill="#1f7a8cff" class="triangle-float2"></path></g><defs><mask id="SvgjsMask1041"><rect width="1600" height="700" fill="#ffffff"></rect></mask><style>
            @keyframes float1 {
                0%{transform: translate(0, 0)}
                50%{transform: translate(-10px, 0)}
                100%{transform: translate(0, 0)}
            }

            .triangle-float1 {
                animation: float1 5s infinite;
            }

            @keyframes float2 {
                0%{transform: translate(0, 0)}
                50%{transform: translate(-5px, -5px)}
                100%{transform: translate(0, 0)}
            }

            .triangle-float2 {
                animation: float2 4s infinite;
            }

            @keyframes float3 {
                0%{transform: translate(0, 0)}
                50%{transform: translate(0, -10px)}
                100%{transform: translate(0, 0)}
            }

            .triangle-float3 {
                animation: float3 6s infinite;
            }
        </style></defs></svg>