  <svg id="mainshapeMobile" xmlns="http://www.w3.org/2000/svg" version="1.1" xmlns:xlink="http://www.w3.org/1999/xlink"
    xmlns:svgjs="http://svgjs.com/svgjs" width="400" height="600" preserveAspectRatio="none" viewBox="0 0 400 600">
    <g mask="url(&quot;#SvgjsMask1058&quot;)" fill="none">
      <path
        d="M81.367,547.446C103.654,548.79,129.254,546.911,140.667,527.721C152.231,508.278,142.479,484.294,130.244,465.266C119.186,448.068,101.811,435.756,81.367,435.497C60.474,435.232,40.518,445.775,30.298,464C20.281,481.863,22.594,503.777,33.285,521.245C43.497,537.931,61.839,546.268,81.367,547.446"
        fill="#1f7a8cff" class="triangle-float3"></path>
      <path
        d="M292.068,202.017C323.261,202.274,346.871,177.881,363.099,151.241C380.211,123.15,395.224,88.65,378.313,60.437C361.675,32.68,324.41,31.618,292.068,32.742C262.288,33.777,230.73,40.411,215.621,66.094C200.346,92.059,208.266,123.831,223.034,150.088C238.163,176.987,261.207,201.763,292.068,202.017"
        fill="#1f7a8cff" class="triangle-float1"></path>
      <path
        d="M47.885,168.675C80.102,168.19,115.333,162.29,131.256,134.278C147.055,106.486,133.935,73.376,117.719,45.825C101.81,18.797,79.229,-6.289,47.885,-7.365C14.964,-8.495,-13.644,12.594,-30.778,40.727C-48.724,70.192,-58.023,107.467,-39.954,136.857C-22.473,165.29,14.512,169.178,47.885,168.675"
        fill="#1f7a8cff" class="triangle-float1"></path>
      <path
        d="M47.043,565.842C62.303,565.459,74.758,555.355,82.721,542.331C91.119,528.595,96.67,511.671,88.724,497.668C80.704,483.534,63.248,478.231,47.043,479.454C32.827,480.526,22.34,491.011,14.996,503.23C7.35,515.951,1.364,530.989,8.126,544.201C15.375,558.363,31.139,566.241,47.043,565.842"
        fill="#1f7a8cff" class="triangle-float1"></path>
    </g>
    <defs>
      <pattern id="img2" patternUnits="objectBoundingBox" width="1" height="1">
        <image href="../images/testface.jpg" x="0" y="-9" width="48%" height="34%"></image>
      </pattern>
    </defs>
    <defs>
      <mask id="SvgjsMask1058">
        <rect width="400" height="600" fill="#ffffff"></rect>
      </mask>
      <style>
        @keyframes float1 {
          0% {
            transform: translate(0, 0)
          }

          50% {
            transform: translate(-10px, 0)
          }

          100% {
            transform: translate(0, 0)
          }
        }

        .triangle-float1 {
          animation: float1 5s infinite;
        }

        @keyframes float2 {
          0% {
            transform: translate(0, 0)
          }

          50% {
            transform: translate(-5px, -5px)
          }

          100% {
            transform: translate(0, 0)
          }
        }

        .triangle-float2 {
          animation: float2 4s infinite;
        }

        @keyframes float3 {
          0% {
            transform: translate(0, 0)
          }

          50% {
            transform: translate(0, -10px)
          }

          100% {
            transform: translate(0, 0)
          }
        }

        .triangle-float3 {
          animation: float3 6s infinite;
        }
      </style>
    </defs>
  </svg>